<svg width="318" height="56" viewBox="0 0 318 56" fill="none" xmlns="http://www.w3.org/2000/svg">
<path d="M46.3786 4.54133H68.3093L67.3706 11.2827H54.272L53.6746 15.208H65.536L64.5973 21.736H52.736L52.096 26.1307H66.2613L65.1946 33H42.1973L46.3786 4.54133ZM69.6433 12.3493H77.0246L76.5126 15.2933C78.4326 12.6907 80.054 11.752 82.614 11.752C85.2593 11.752 87.094 12.904 88.1606 15.2507C89.8246 12.904 91.958 11.752 94.6033 11.752C98.87 11.752 101.43 14.3973 101.43 18.7067C101.43 19.7307 101.43 20.328 101.131 21.8213L99.51 33H91.6166L93.366 21.6507C93.494 20.7547 93.5366 20.4133 93.5366 20.072C93.5366 18.8773 92.726 18.1093 91.4886 18.1093C89.9526 18.1093 89.142 19.1333 88.758 21.6507L87.0086 33H79.158L80.8646 21.6507C80.9073 21.1813 80.95 20.6267 80.95 20.328C80.95 18.8347 80.2673 18.1093 78.9446 18.1093C77.366 18.1093 76.5553 19.1333 76.214 21.6507L74.5073 33H66.614L69.6433 12.3493ZM104.518 12.3493H111.985L111.644 14.952C113.18 12.7333 114.886 11.8373 117.489 11.8373C122.438 11.8373 125.638 15.6347 125.638 21.3947C125.638 28.52 121.585 33.5547 115.91 33.5547C112.966 33.5547 111.302 32.616 109.809 30.2267L108.358 39.912H100.508L104.518 12.3493ZM114.758 17.6827C112.497 17.6827 110.79 20.2853 110.79 23.5707C110.79 25.96 111.9 27.2827 113.777 27.2827C116.166 27.2827 117.745 24.8933 117.745 21.48C117.745 19.048 116.678 17.6827 114.758 17.6827ZM129.795 4.54133H137.689L133.507 33H125.614L129.795 4.54133ZM148.46 11.7947C151.916 11.7947 155.03 12.9467 157.036 14.8667C158.7 16.5307 159.596 19.0907 159.596 22.0347C159.596 29.16 154.817 33.64 147.35 33.64C140.865 33.64 136.598 29.7147 136.598 23.6133C136.598 16.6587 141.462 11.7947 148.46 11.7947ZM148.758 17.384C146.326 17.384 144.662 20.1147 144.662 24.0827C144.662 26.728 145.644 28.0507 147.649 28.0507C148.588 28.0507 149.356 27.752 149.91 27.112C150.977 25.96 151.617 23.7413 151.617 21.352C151.617 18.7067 150.678 17.384 148.758 17.384ZM159.412 34.1093C160.052 34.1093 160.564 34.152 160.863 34.152C162.697 34.28 163.38 33.768 163.38 32.5733C163.38 32.36 163.38 32.1893 163.337 32.0613L159.54 12.3493H167.433L168.969 25.96L174.175 12.3493H182.367L173.065 32.0187C171.487 35.3467 171.956 34.536 171.615 34.9627C170.42 37.3947 169.737 38.248 168.287 38.9307C167.007 39.5707 165.129 39.8693 162.655 39.8693C161.332 39.8693 160.521 39.8267 158.772 39.6987L159.412 34.1093ZM183.518 12.3493H191.412L188.382 33H180.489L183.518 12.3493ZM184.67 4.54133H192.564L191.796 9.704H183.902L184.67 4.54133ZM204.658 30.6107C203.634 31.6773 203.293 31.976 202.824 32.3173C201.501 33.1707 199.368 33.7253 197.49 33.7253C193.181 33.7253 190.536 31.5067 190.536 27.9227C190.536 25.32 191.901 23.1013 194.12 22.0773C195.101 21.6507 196.21 21.352 197.362 21.1813C201.458 20.6267 199.666 20.8827 203.336 20.4133C205.213 20.1147 205.896 19.6453 205.896 18.408C205.896 17.0853 205 16.4453 203.25 16.4453C201.501 16.4453 200.776 17 200.136 18.8347H192.754C193.053 14.184 196.808 11.752 203.762 11.752C209.736 11.752 213.362 14.0987 213.362 17.8533C213.362 18.3227 213.32 18.8347 213.277 19.4747L211.954 29.544C211.912 29.8427 211.869 30.1413 211.869 30.4827C211.869 31.336 211.912 31.5493 212.466 33H204.786L204.658 30.6107ZM205.256 23.4427C204.104 23.656 204.616 23.5707 202.013 24.1253C199.41 24.5947 198.514 25.2773 198.514 26.7707C198.514 27.9653 199.282 28.6907 200.776 28.6907C202.781 28.6907 204.104 27.8373 204.744 26.088C204.957 25.4053 205.042 25.5333 205.256 23.4427Z" fill="#170039"/>
<path d="M0.518883 20.5595L8.10679 33.7682L11.6089 26.4947L7.77786 19.8274C7.56898 19.4751 7.45877 19.0729 7.45877 18.6633C7.45877 18.2537 7.56898 17.8516 7.77786 17.4992L12.5586 9.17923C12.9859 8.43753 13.7163 8.01347 14.566 8.01347H17.1378L12.1619 19.2244H18.3084L9.94975 35.4402L26.7379 15.3031H21.5767L25.0981 8.01508H34.8563L38.697 1.33334H11.5686C10.1819 1.33334 8.99199 2.02345 8.29866 3.22629L0.518883 16.7704C0.179215 17.3439 0 17.9983 0 18.6649C0 19.3315 0.179215 19.9859 0.518883 20.5595ZM12.149 35.9997H27.1281C27.794 36.0082 28.4498 35.8364 29.026 35.5026C29.6022 35.1688 30.0774 34.6854 30.4013 34.1035L38.1811 20.5595C38.5189 19.9853 38.6971 19.3311 38.6971 18.6649C38.6971 17.9987 38.5189 17.3446 38.1811 16.7704L35.0692 11.3527H27.3893L30.9205 17.5008C31.3429 18.2425 31.3429 19.0922 30.9205 19.8291L26.1414 28.1522C25.9419 28.5097 25.6497 28.8067 25.2956 29.0119C24.9414 29.217 24.5384 29.3228 24.1291 29.318H20.656L18.2423 29.2906L12.149 35.9997Z" fill="#170039"/>
</svg>
