<svg width="172" height="36" viewBox="0 0 172 36" fill="none" xmlns="http://www.w3.org/2000/svg">
<path d="M4.3785 0.541333H26.3092L25.3705 7.28267H12.2718L11.6745 11.208H23.5358L22.5972 17.736H10.7358L10.0958 22.1307H24.2612L23.1945 29H0.197171L4.3785 0.541333ZM27.6432 8.34933H35.0245L34.5125 11.2933C36.4325 8.69067 38.0538 7.752 40.6138 7.752C43.2592 7.752 45.0938 8.904 46.1605 11.2507C47.8245 8.904 49.9578 7.752 52.6032 7.752C56.8698 7.752 59.4298 10.3973 59.4298 14.7067C59.4298 15.7307 59.4298 16.328 59.1312 17.8213L57.5098 29H49.6165L51.3658 17.6507C51.4938 16.7547 51.5365 16.4133 51.5365 16.072C51.5365 14.8773 50.7258 14.1093 49.4885 14.1093C47.9525 14.1093 47.1418 15.1333 46.7578 17.6507L45.0085 29H37.1578L38.8645 17.6507C38.9072 17.1813 38.9498 16.6267 38.9498 16.328C38.9498 14.8347 38.2672 14.1093 36.9445 14.1093C35.3658 14.1093 34.5552 15.1333 34.2138 17.6507L32.5072 29H24.6138L27.6432 8.34933ZM62.5182 8.34933H69.9848L69.6435 10.952C71.1795 8.73333 72.8862 7.83733 75.4888 7.83733C80.4382 7.83733 83.6382 11.6347 83.6382 17.3947C83.6382 24.52 79.5848 29.5547 73.9102 29.5547C70.9662 29.5547 69.3022 28.616 67.8088 26.2267L66.3582 35.912H58.5075L62.5182 8.34933ZM72.7582 13.6827C70.4968 13.6827 68.7902 16.2853 68.7902 19.5707C68.7902 21.96 69.8995 23.2827 71.7768 23.2827C74.1662 23.2827 75.7448 20.8933 75.7448 17.48C75.7448 15.048 74.6782 13.6827 72.7582 13.6827ZM87.7952 0.541333H95.6885L91.5072 29H83.6138L87.7952 0.541333ZM106.459 7.79467C109.915 7.79467 113.03 8.94667 115.035 10.8667C116.699 12.5307 117.595 15.0907 117.595 18.0347C117.595 25.16 112.817 29.64 105.35 29.64C98.8648 29.64 94.5982 25.7147 94.5982 19.6133C94.5982 12.6587 99.4622 7.79467 106.459 7.79467ZM106.758 13.384C104.326 13.384 102.662 16.1147 102.662 20.0827C102.662 22.728 103.643 24.0507 105.649 24.0507C106.587 24.0507 107.355 23.752 107.91 23.112C108.977 21.96 109.617 19.7413 109.617 17.352C109.617 14.7067 108.678 13.384 106.758 13.384ZM117.412 30.1093C118.052 30.1093 118.564 30.152 118.862 30.152C120.697 30.28 121.38 29.768 121.38 28.5733C121.38 28.36 121.38 28.1893 121.337 28.0613L117.54 8.34933H125.433L126.969 21.96L132.174 8.34933H140.366L131.065 28.0187C129.486 31.3467 129.956 30.536 129.614 30.9627C128.42 33.3947 127.737 34.248 126.286 34.9307C125.006 35.5707 123.129 35.8693 120.654 35.8693C119.332 35.8693 118.521 35.8267 116.772 35.6987L117.412 30.1093ZM141.518 8.34933H149.411L146.382 29H138.489L141.518 8.34933ZM142.67 0.541333H150.563L149.795 5.704H141.902L142.67 0.541333ZM162.658 26.6107C161.634 27.6773 161.293 27.976 160.823 28.3173C159.501 29.1707 157.367 29.7253 155.49 29.7253C151.181 29.7253 148.535 27.5067 148.535 23.9227C148.535 21.32 149.901 19.1013 152.119 18.0773C153.101 17.6507 154.21 17.352 155.362 17.1813C159.458 16.6267 157.666 16.8827 161.335 16.4133C163.213 16.1147 163.895 15.6453 163.895 14.408C163.895 13.0853 162.999 12.4453 161.25 12.4453C159.501 12.4453 158.775 13 158.135 14.8347H150.754C151.053 10.184 154.807 7.752 161.762 7.752C167.735 7.752 171.362 10.0987 171.362 13.8533C171.362 14.3227 171.319 14.8347 171.277 15.4747L169.954 25.544C169.911 25.8427 169.869 26.1413 169.869 26.4827C169.869 27.336 169.911 27.5493 170.466 29H162.786L162.658 26.6107ZM163.255 19.4427C162.103 19.656 162.615 19.5707 160.013 20.1253C157.41 20.5947 156.514 21.2773 156.514 22.7707C156.514 23.9653 157.282 24.6907 158.775 24.6907C160.781 24.6907 162.103 23.8373 162.743 22.088C162.957 21.4053 163.042 21.5333 163.255 19.4427Z" fill="white"/>
</svg>
