<svg width="172" height="36" viewBox="0 0 172 36" fill="none" xmlns="http://www.w3.org/2000/svg">
<path d="M4.37863 0.541333H26.3093L25.3706 7.28267H12.272L11.6746 11.208H23.536L22.5973 17.736H10.736L10.096 22.1307H24.2613L23.1946 29H0.197293L4.37863 0.541333ZM27.6433 8.34933H35.0246L34.5126 11.2933C36.4326 8.69067 38.054 7.752 40.614 7.752C43.2593 7.752 45.094 8.904 46.1606 11.2507C47.8246 8.904 49.958 7.752 52.6033 7.752C56.87 7.752 59.43 10.3973 59.43 14.7067C59.43 15.7307 59.43 16.328 59.1313 17.8213L57.51 29H49.6166L51.366 17.6507C51.494 16.7547 51.5366 16.4133 51.5366 16.072C51.5366 14.8773 50.726 14.1093 49.4886 14.1093C47.9526 14.1093 47.142 15.1333 46.758 17.6507L45.0086 29H37.158L38.8646 17.6507C38.9073 17.1813 38.95 16.6267 38.95 16.328C38.95 14.8347 38.2673 14.1093 36.9446 14.1093C35.366 14.1093 34.5553 15.1333 34.214 17.6507L32.5073 29H24.614L27.6433 8.34933ZM62.5183 8.34933H69.985L69.6436 10.952C71.1796 8.73333 72.8863 7.83733 75.489 7.83733C80.4383 7.83733 83.6383 11.6347 83.6383 17.3947C83.6383 24.52 79.585 29.5547 73.9103 29.5547C70.9663 29.5547 69.3023 28.616 67.809 26.2267L66.3583 35.912H58.5076L62.5183 8.34933ZM72.7583 13.6827C70.497 13.6827 68.7903 16.2853 68.7903 19.5707C68.7903 21.96 69.8996 23.2827 71.777 23.2827C74.1663 23.2827 75.745 20.8933 75.745 17.48C75.745 15.048 74.6783 13.6827 72.7583 13.6827ZM87.7953 0.541333H95.6886L91.5073 29H83.6139L87.7953 0.541333ZM106.46 7.79467C109.916 7.79467 113.03 8.94667 115.036 10.8667C116.7 12.5307 117.596 15.0907 117.596 18.0347C117.596 25.16 112.817 29.64 105.35 29.64C98.8649 29.64 94.5983 25.7147 94.5983 19.6133C94.5983 12.6587 99.4623 7.79467 106.46 7.79467ZM106.758 13.384C104.326 13.384 102.662 16.1147 102.662 20.0827C102.662 22.728 103.644 24.0507 105.649 24.0507C106.588 24.0507 107.356 23.752 107.91 23.112C108.977 21.96 109.617 19.7413 109.617 17.352C109.617 14.7067 108.678 13.384 106.758 13.384ZM117.412 30.1093C118.052 30.1093 118.564 30.152 118.863 30.152C120.697 30.28 121.38 29.768 121.38 28.5733C121.38 28.36 121.38 28.1893 121.337 28.0613L117.54 8.34933H125.433L126.969 21.96L132.175 8.34933H140.367L131.065 28.0187C129.487 31.3467 129.956 30.536 129.615 30.9627C128.42 33.3947 127.737 34.248 126.287 34.9307C125.007 35.5707 123.129 35.8693 120.655 35.8693C119.332 35.8693 118.521 35.8267 116.772 35.6987L117.412 30.1093ZM141.518 8.34933H149.412L146.382 29H138.489L141.518 8.34933ZM142.67 0.541333H150.564L149.796 5.704H141.902L142.67 0.541333ZM162.658 26.6107C161.634 27.6773 161.293 27.976 160.824 28.3173C159.501 29.1707 157.368 29.7253 155.49 29.7253C151.181 29.7253 148.536 27.5067 148.536 23.9227C148.536 21.32 149.901 19.1013 152.12 18.0773C153.101 17.6507 154.21 17.352 155.362 17.1813C159.458 16.6267 157.666 16.8827 161.336 16.4133C163.213 16.1147 163.896 15.6453 163.896 14.408C163.896 13.0853 163 12.4453 161.25 12.4453C159.501 12.4453 158.776 13 158.136 14.8347H150.754C151.053 10.184 154.808 7.752 161.762 7.752C167.736 7.752 171.362 10.0987 171.362 13.8533C171.362 14.3227 171.32 14.8347 171.277 15.4747L169.954 25.544C169.912 25.8427 169.869 26.1413 169.869 26.4827C169.869 27.336 169.912 27.5493 170.466 29H162.786L162.658 26.6107ZM163.256 19.4427C162.104 19.656 162.616 19.5707 160.013 20.1253C157.41 20.5947 156.514 21.2773 156.514 22.7707C156.514 23.9653 157.282 24.6907 158.776 24.6907C160.781 24.6907 162.104 23.8373 162.744 22.088C162.957 21.4053 163.042 21.5333 163.256 19.4427Z" fill="#170039"/>
</svg>
