<svg width="39" height="35" viewBox="0 0 39 35" fill="none" xmlns="http://www.w3.org/2000/svg">
<path d="M0.518883 19.5595L8.10679 32.7682L11.6089 25.4947L7.77786 18.8274C7.56898 18.4751 7.45877 18.0729 7.45877 17.6633C7.45877 17.2537 7.56898 16.8516 7.77786 16.4992L12.5586 8.17923C12.9859 7.43753 13.7163 7.01347 14.566 7.01347H17.1378L12.1619 18.2244H18.3084L9.94975 34.4402L26.7379 14.3031H21.5767L25.0981 7.01508H34.8563L38.697 0.333344H11.5686C10.1819 0.333344 8.99199 1.02345 8.29866 2.22629L0.518883 15.7704C0.179215 16.3439 0 16.9983 0 17.6649C0 18.3315 0.179215 18.9859 0.518883 19.5595ZM12.149 34.9997H27.1281C27.794 35.0082 28.4498 34.8364 29.026 34.5026C29.6022 34.1688 30.0774 33.6854 30.4013 33.1035L38.1811 19.5595C38.5189 18.9853 38.6971 18.3311 38.6971 17.6649C38.6971 16.9987 38.5189 16.3446 38.1811 15.7704L35.0692 10.3527H27.3893L30.9205 16.5008C31.3429 17.2425 31.3429 18.0922 30.9205 18.8291L26.1414 27.1522C25.9419 27.5097 25.6497 27.8067 25.2956 28.0119C24.9414 28.217 24.5384 28.3228 24.1291 28.318H20.656L18.2423 28.2906L12.149 34.9997Z" fill="#170039"/>
</svg>
